PathFileType	4	(X/Y/Z)	C:\Users\Basilio\Documents\Thesis Gigler\squatting_fais\c3dfiles\054\SJ_pre5\markers_experimental.trc
DataRate	CameraRate	NumFrames	NumMarkers	Units	OrigDataRate	OrigDataStartFrame	OrigNumFrames
200.000000	200.000000	4	61	mm	200.000000	1001	1602
Frame#	Time	FHD			LBHD			RBHD			C7			T10			CLAV			LSHO			LUUPA			LMUPA			LDUPA			LLEP			LMEP			LRAD			LUL			LRFIN			RSHO			RUPA1			RMUPA			RDUPA			RLEP			RMEP			RRAD			RUL			RUFIN			LASI			RASI			USACR			LSACR			RSACR			LTHI1			LTHI2			LTHI3			LTHI4			LLFC			LMFC			LTIB1			LTIB2			LTIB3			LTIB4			LLMAL			LMMAL			LHEE			LMT1			LMT2			LMT5			RTHI			RTHI2			RTHI3			RTHI4			RLFC			RMFC			RTIB1			RTIB2			RTIB3			RTIB4			RLMAL			RMMAL			RHEE			RMT1			RMT2			RMT5			
		X1	Y1	Z1	X2	Y2	Z2	X3	Y3	Z3	X4	Y4	Z4	X5	Y5	Z5	X6	Y6	Z6	X7	Y7	Z7	X8	Y8	Z8	X9	Y9	Z9	X10	Y10	Z10	X11	Y11	Z11	X12	Y12	Z12	X13	Y13	Z13	X14	Y14	Z14	X15	Y15	Z15	X16	Y16	Z16	X17	Y17	Z17	X18	Y18	Z18	X19	Y19	Z19	X20	Y20	Z20	X21	Y21	Z21	X22	Y22	Z22	X23	Y23	Z23	X24	Y24	Z24	X25	Y25	Z25	X26	Y26	Z26	X27	Y27	Z27	X28	Y28	Z28	X29	Y29	Z29	X30	Y30	Z30	X31	Y31	Z31	X32	Y32	Z32	X33	Y33	Z33	X34	Y34	Z34	X35	Y35	Z35	X36	Y36	Z36	X37	Y37	Z37	X38	Y38	Z38	X39	Y39	Z39	X40	Y40	Z40	X41	Y41	Z41	X42	Y42	Z42	X43	Y43	Z43	X44	Y44	Z44	X45	Y45	Z45	X46	Y46	Z46	X47	Y47	Z47	X48	Y48	Z48	X49	Y49	Z49	X50	Y50	Z50	X51	Y51	Z51	X52	Y52	Z52	X53	Y53	Z53	X54	Y54	Z54	X55	Y55	Z55	X56	Y56	Z56	X57	Y57	Z57	X58	Y58	Z58	X59	Y59	Z59	X60	Y60	Z60	X61	Y61	Z61	

1002	5.005	200.8937377929688	1147.148681640625	-866.4615478515627	33.82226562500001	1115.157592773438	-942.9309082031252	13.63140869140625	1115.141723632813	-804.430358886719	-45.8725814819336	1039.090209960938	-866.5963134765627	-326.8950805664063	851.709655761719	-903.8852539062502	13.27625942230225	886.748229980469	-871.937927246094	34.81742095947266	971.1804199218752	-1022.08251953125	-94.09175872802736	985.8363037109377	-1207.587768554688	-96.75446319580081	937.854431152344	-1224.40625	-134.7403869628907	965.6988525390627	-1262.230590820313	-179.6614837646485	923.750671386719	-1293.430541992188	-246.4347534179688	966.2269287109377	-1250.49853515625	-313.4933776855469	761.0886230468751	-1130.344360351563	-305.1065979003907	704.5665283203126	-1180.213256835938	-272.5507507324219	732.4316406250001	-1087.720947265625	14.92583560943604	952.1395263671877	-709.5051269531251	-155.2450408935547	960.101501464844	-551.5057373046876	-172.8331298828125	915.120788574219	-541.0490722656251	-214.3376617431641	949.8760375976565	-513.1451416015626	-261.9982604980469	927.731140136719	-498.6086730957032	-305.1281738281251	973.4311523437502	-559.7715454101564	-381.0668640136719	772.2314453125002	-696.4539184570314	-379.8545532226563	718.2827758789064	-638.3720703125001	-322.4977416992188	743.9043579101564	-715.6019897460939	-287.7939453125001	622.5075683593751	-1028.282958984375	-297.3497009277344	642.9123535156251	-758.4029541015626	-400.8244628906251	787.7056884765627	-907.223571777344	-426.0379943847657	767.1579589843751	-935.962097167969	-429.7532348632814	767.3429565429689	-878.3320922851565	-343.7089538574219	568.6715698242189	-1175.130859375	-264.0368041992188	560.6876831054689	-1205.5869140625	-237.7879180908204	597.0982666015626	-1191.069458007813	-235.4730224609376	511.0724487304689	-1224.61767578125	-120.0967483520508	444.884979248047	-1260.81787109375	-52.49313354492189	422.9428100585939	-1143.885864257813	-125.4182815551758	284.5304260253907	-1232.931396484375	-205.6274566650391	273.4035644531251	-1269.250732421875	-168.2506561279297	252.1741485595704	-1256.430908203125	-200.3260345458985	183.1871795654297	-1218.853271484375	-325.6592712402344	89.5927200317383	-1236.4384765625	-265.2885131835938	95.22290802001955	-1157.576171875	-381.1379394531251	53.12605667114259	-1160.987548828125	-166.5708618164063	53.2855567932129	-1224.846313476563	-179.5011901855469	56.43600845336915	-1272.811767578125	-245.0933380126954	37.8789176940918	-1305.289672851563	-310.4444885253907	539.3400268554689	-605.0711059570314	-247.5237884521485	548.9106445312501	-581.6909179687501	-227.4640808105469	575.2750854492189	-587.6599121093751	-195.6479949951172	486.4869689941407	-558.9465942382814	-148.2605590820313	444.6920471191407	-537.4168090820314	-63.63576507568361	443.6287841796876	-648.1708984375001	-126.639892578125	339.0666809082032	-529.5020141601564	-231.5639801025391	305.9464721679688	-533.5906982421876	-192.3189544677735	280.8289184570313	-530.0064086914064	-193.6806335449219	229.7725524902344	-556.4144897460939	-321.0106811523438	91.88626098632814	-573.7716064453126	-261.1625671386719	99.42403411865237	-645.9877929687501	-375.1738891601563	51.70950317382814	-649.4752197265626	-157.333984375	51.73352813720705	-585.4080810546876	-171.7418823242188	54.42584228515626	-539.3778686523439	-233.5735015869141	34.3713607788086	-508.184539794922	
1003	5.01	202.2216796875001	1141.338745117188	-866.5684814453127	35.30446243286134	1110.331787109375	-943.2929687500002	15.11713314056397	1110.263916015625	-804.7441406250002	-44.78683471679688	1034.427368164063	-866.9913330078127	-326.7293701171876	848.9703369140627	-904.1505126953127	13.00207042694092	881.9766235351565	-872.5982666015627	35.71578216552735	966.6436157226565	-1022.6767578125	-91.50504302978517	982.0217285156252	-1208.784301757813	-96.37570953369143	933.417663574219	-1224.80078125	-133.0699310302735	961.8020629882815	-1263.000854492188	-179.0273895263672	920.1965942382815	-1294.223876953125	-245.7710876464844	963.1008911132815	-1251.033813476563	-313.9409790039063	758.6008911132814	-1130.408325195313	-305.0798034667969	701.7877807617189	-1180.260864257813	-272.7891845703126	729.8248291015626	-1087.684814453125	15.89993286132813	947.2473144531252	-710.2568359375001	-153.4141387939453	955.7080688476565	-551.4435424804689	-171.282470703125	911.0037231445315	-540.9613647460939	-212.4503631591797	945.7701416015627	-513.0721435546876	-260.1766357421876	923.617614746094	-498.5819091796876	-303.4670715332032	970.0679321289065	-559.0897827148439	-380.6624755859376	769.5130615234377	-696.2146606445314	-379.6558532714844	715.2976074218751	-638.3333740234376	-322.4419860839844	741.0288085937501	-715.8268432617189	-289.6589965820313	619.9252929687501	-1028.857543945313	-297.4819030761719	641.1095581054689	-758.3671875000001	-401.6770629882814	785.4069824218752	-907.2150878906252	-427.1524047851564	764.8767089843751	-935.767517089844	-430.5911560058595	765.0490722656251	-878.3394165039065	-345.3908081054688	567.8640136718751	-1175.340209960938	-265.5913696289063	560.0801391601564	-1205.482299804688	-239.4567871093751	596.2923583984376	-1191.01806640625	-236.8481445312501	510.4799194335939	-1224.735107421875	-121.0570983886719	445.338104248047	-1261.2236328125	-53.25489807128908	423.1634826660157	-1144.429809570313	-125.8657379150391	284.8869934082032	-1233.334106445313	-206.0988922119141	273.5238952636719	-1269.408325195313	-168.6347045898438	252.3287506103516	-1256.738037109375	-200.5270690917969	183.2911987304688	-1219.061279296875	-325.8051452636719	89.5680618286133	-1236.491943359375	-265.3559875488282	95.27108001708986	-1157.693115234375	-381.1142578125001	53.11154174804689	-1160.986572265625	-166.5734558105469	53.31324005126955	-1224.910522460938	-179.6173095703125	56.37705612182619	-1272.80322265625	-245.1530456542969	37.86315155029298	-1305.321899414063	-311.3641967773438	537.6297607421876	-604.7344360351564	-248.5511169433594	547.6965942382814	-581.2333984375001	-228.8504333496094	574.2225952148439	-587.1087646484376	-196.1976928710938	485.7276916503907	-558.5267944335939	-148.8914031982422	444.5583801269532	-536.6148681640626	-64.06011199951173	443.7724914550782	-647.1820678710939	-127.2875137329102	339.0637817382813	-528.7933959960939	-231.9153747558594	305.7792358398438	-533.0899047851564	-192.5840911865235	280.5876159667969	-529.5311279296876	-193.9718170166016	229.7692871093751	-556.0865478515626	-321.0872192382813	91.77879333496095	-573.7418212890626	-261.2369384765626	99.42033386230472	-645.8275756835939	-375.2976379394532	51.63405609130861	-649.4384765625001	-157.3014221191407	52.29039001464845	-585.7308959960939	-171.6813354492188	54.29066848754884	-539.2739868164064	-233.5749816894532	34.30114746093751	-508.1936340332032	
1004	5.015	204.189193725586	1135.765258789063	-866.9907226562502	36.9753646850586	1105.935668945313	-943.6451416015627	16.44742965698243	1105.534301757813	-805.1895751953127	-43.56203842163087	1030.544067382813	-867.3841552734377	-326.3978271484376	846.4143066406252	-904.2971801757815	13.23052597045899	877.478454589844	-873.216735839844	36.41125106811524	962.1534423828127	-1023.114379882813	-90.33625793457033	978.0487060546877	-1209.49267578125	-95.43495178222658	929.4157714843752	-1225.42919921875	-131.840576171875	957.9340820312502	-1263.8759765625	-178.2790832519532	916.5972900390627	-1294.83642578125	-244.7050476074219	959.916687011719	-1252.006225585938	-314.6874389648438	756.3168945312501	-1130.199462890625	-304.9389343261719	699.0770263671876	-1180.341796875	-272.8662719726563	727.0958251953126	-1087.727416992188	17.53950691223145	942.5364990234377	-711.1180419921876	-151.4640045166016	951.4712524414065	-551.8491210937501	-169.4087066650391	906.5646972656252	-541.1705322265626	-210.5642852783204	941.8464355468752	-512.7281494140626	-258.4467773437501	919.8321533203127	-498.4053955078126	-301.5760498046876	966.5571289062502	-558.4742431640626	-380.5267639160157	766.9774169921876	-695.9572753906251	-379.5442199707032	712.5717163085939	-638.2353515625001	-322.5108032226563	738.4136962890626	-715.9688720703126	-284.6249084472657	621.1555175781251	-1028.464965820313	-298.1465759277344	638.9755249023439	-758.4649047851564	-402.4245910644532	782.9688110351565	-907.1925048828127	-426.5961914062501	762.0354614257814	-936.017028808594	-429.9344177246095	762.3828125000001	-878.5412597656252	-346.6876220703126	566.5652465820314	-1175.255249023438	-267.1410827636719	559.3728027343751	-1205.513061523438	-241.1978759765626	595.6018676757814	-1191.099853515625	-238.2635650634766	509.8127746582032	-1224.970092773438	-121.5885467529297	445.3412170410157	-1261.578369140625	-53.74984359741212	423.5528869628907	-1144.988037109375	-126.5456466674805	285.0274658203126	-1233.838256835938	-206.456527709961	273.6730651855469	-1269.598876953125	-168.8046875	252.6963043212891	-1257.152587890625	-200.9532470703126	183.5262451171875	-1219.283569335938	-325.7764892578126	89.5135955810547	-1236.53271484375	-265.4234008789063	95.36323547363283	-1157.80322265625	-381.1820373535157	53.09889221191408	-1160.974975585938	-166.5751647949219	53.34532546997072	-1224.900146484375	-179.5841979980469	56.40389251708986	-1272.791381835938	-245.1040496826172	37.8589096069336	-1305.324951171875	-312.2219848632813	535.8559570312501	-604.3817749023439	-249.6104125976563	546.5501708984376	-580.7008666992189	-230.1116027832032	573.1726684570314	-586.5263671875001	-196.9895629882813	484.9523925781251	-558.0212402343751	-149.5985107421875	444.3549804687501	-535.9736328125001	-64.20291900634767	443.9036560058595	-646.3638305664064	-127.7718658447266	339.0758056640626	-528.1190185546876	-232.1677246093751	305.6731567382813	-532.6198120117189	-192.7929077148438	280.4853210449219	-529.2161865234376	-194.3326721191407	229.6408233642579	-555.7770996093751	-321.1433715820313	91.6858367919922	-573.6804809570314	-261.4724121093751	99.45241546630862	-645.7979125976564	-375.2862548828126	51.58038330078126	-649.4297485351564	-157.4865264892578	51.79717254638673	-585.3782348632814	-171.6913452148438	54.31916427612306	-539.2758789062501	-233.6171417236329	34.28078842163087	-508.1912536621095	
1005	5.02	205.6846618652344	1130.698608398438	-867.2683715820315	38.51506805419923	1101.48046875	-944.1987304687502	17.89837455749512	1101.146728515625	-805.6638183593752	-42.56596374511719	1026.195678710938	-867.9954833984377	-326.4616699218751	844.1502075195315	-904.3921508789065	14.07371807098389	873.466003417969	-874.0103149414065	36.98001861572266	957.9087524414065	-1023.674682617188	-89.02970123291017	974.1380004882815	-1210.298950195313	-94.52096557617189	925.5081787109377	-1226.056274414063	-130.4896392822266	954.4317016601565	-1264.550170898438	-177.4893188476563	913.1104736328127	-1295.468383789063	-243.5477294921876	956.819030761719	-1253.014526367188	-314.2704467773438	753.7820434570314	-1130.592895507813	-304.9870300292969	696.4799194335939	-1180.303466796875	-273.0439147949219	724.9077148437501	-1087.71826171875	18.20440483093262	937.8405761718752	-711.7591552734376	-149.722396850586	947.1442871093752	-551.8698730468751	-167.47314453125	902.656188964844	-541.0479125976564	-208.6842346191407	937.9197998046877	-512.5452880859376	-256.5807189941407	916.2806396484377	-498.2316284179689	-299.5641174316407	963.296569824219	-557.9530029296876	-380.6763305664063	764.8237915039064	-695.7024536132814	-379.6193237304688	710.1252441406251	-638.2139892578126	-322.8171386718751	735.9651489257814	-716.0830688476564	-283.4949035644532	620.2406616210939	-1028.671142578125	-299.7360839843751	637.1289062500001	-758.7153930664064	-403.1800231933595	780.5857543945315	-907.2497558593752	-426.934539794922	759.4765014648439	-936.0706176757815	-430.0645446777345	759.9063720703126	-878.533874511719	-348.1946105957032	565.2559204101564	-1175.15673828125	-268.4892272949219	558.2298583984376	-1205.75244140625	-242.8634643554688	594.8325195312501	-1191.180297851563	-238.8102569580079	509.1143188476564	-1225.23583984375	-122.8925094604492	445.6063537597657	-1261.797119140625	-54.41098785400392	423.7388000488282	-1145.514038085938	-126.8517532348633	285.1132812500001	-1234.13427734375	-206.9503479003907	273.6820983886719	-1269.76806640625	-169.3222808837891	252.7516632080079	-1257.41552734375	-201.3650054931641	183.5174713134766	-1219.458618164063	-325.8517150878907	89.45339965820314	-1236.53076171875	-265.4645385742188	95.40821075439455	-1157.862182617188	-381.1232910156251	53.08181381225587	-1160.956420898438	-166.4976959228516	53.3056983947754	-1224.872314453125	-179.6437225341797	56.37530899047853	-1272.8251953125	-245.1166687011719	37.83844375610352	-1305.316040039063	-313.3244018554688	534.0958862304689	-604.0136718750001	-250.6676635742188	545.5607910156251	-580.2487182617189	-231.3950500488282	572.3807983398439	-585.9655151367189	-197.6622314453126	484.1148681640626	-557.6477050781251	-150.1229858398438	444.1722412109376	-535.3469848632814	-64.28331756591798	443.9817504882814	-645.7224121093751	-128.0899200439453	339.0141601562501	-527.6591796875001	-232.5273742675782	305.5868225097657	-532.2523803710939	-192.945053100586	280.3750305175782	-528.9291992187501	-194.6462860107422	229.6283721923829	-555.3832397460939	-321.1983947753907	91.5696258544922	-573.6023559570314	-261.4194641113282	99.51575469970706	-645.6724243164064	-375.3345947265626	51.5564308166504	-649.4818115234376	-157.5621185302735	51.72020339965822	-585.3839111328126	-171.9053344726563	54.38990402221681	-539.2885131835939	-233.6082000732422	34.23934173583985	-508.1917419433595	
